<svg id="bb24cf31-e8ad-4c50-aa9e-6729b6cc021f" data-name="Слой 1" xmlns="http://www.w3.org/2000/svg" xmlns:xlink="http://www.w3.org/1999/xlink" viewBox="0 0 825.88 60.62"><defs><linearGradient id="aeca8c8e-59b6-4f99-ab29-5815e2546af7" x1="6.92" y1="49.56" x2="94.83" y2="51.78" gradientTransform="matrix(1, 0, 0, -1, 0, 101)" gradientUnits="userSpaceOnUse"><stop offset="0" stop-color="#262c5c"/><stop offset="0.55" stop-color="#243576"/><stop offset="0.85" stop-color="#223a87"/></linearGradient><linearGradient id="b48b7931-3eb5-45d7-8916-b10d6488f729" x1="455.92" y1="54.78" x2="1674.08" y2="69.31" xlink:href="#aeca8c8e-59b6-4f99-ab29-5815e2546af7"/><linearGradient id="b5f6c7ef-0e97-430a-806c-0f77f9bf96c7" x1="743.57" y1="62.87" x2="2769.56" y2="101.55" xlink:href="#aeca8c8e-59b6-4f99-ab29-5815e2546af7"/><linearGradient id="b102b03a-8b23-4ff5-a4fd-772a251c55a4" x1="888.98" y1="68.46" x2="3280.34" y2="124.45" xlink:href="#aeca8c8e-59b6-4f99-ab29-5815e2546af7"/></defs><path d="M36.73,36.42l-7.89,20-3.2-17a3.52,3.52,0,0,0-3.49-3H9.21L9,37.27a32.23,32.23,0,0,1,7.48,2.49,3.24,3.24,0,0,1,1.79,2.58l6.06,23.42h8l12.3-29.34Z" transform="translate(-9.04 -18.88)" fill="url(#aeca8c8e-59b6-4f99-ab29-5815e2546af7)"/><path d="M47.92,36.42,41.65,65.74h7.59L55.5,36.42Z" transform="translate(-9.04 -18.88)" fill="url(#b48b7931-3eb5-45d7-8916-b10d6488f729)"/><path d="M65.45,44.54c0-1,1-2.16,3.22-2.46a14.48,14.48,0,0,1,7.48,1.31l1.33-6.21a20.41,20.41,0,0,0-7.09-1.3c-7.5,0-12.77,4-12.82,9.7,0,4.21,3.77,6.57,6.64,8s4,2.35,3.93,3.64c0,2-2.36,2.83-4.53,2.87a15.94,15.94,0,0,1-7.8-1.85l-1.37,6.43a23,23,0,0,0,8.44,1.55c8,0,13.17-3.94,13.2-10,0-7.75-10.7-8.17-10.63-11.63" transform="translate(-9.04 -18.88)" fill="url(#b5f6c7ef-0e97-430a-806c-0f77f9bf96c7)"/><path d="M87.42,55.36l4-11,2.27,11ZM90.3,36.42a3.47,3.47,0,0,0-3.24,2.15L75.73,65.76h8l1.58-4.38H95l.91,4.38h7l-6.2-29.34Z" transform="translate(-9.04 -18.88)" fill="url(#b102b03a-8b23-4ff5-a4fd-772a251c55a4)"/><path d="M266.13,31.68H246.46V67h19.67Z" transform="translate(-9.04 -18.88)" fill="#ff5f00"/><path d="M247.73,49.36a22.5,22.5,0,0,1,8.58-17.68,22.48,22.48,0,1,0,0,35.36,22.5,22.5,0,0,1-8.58-17.68Z" transform="translate(-9.04 -18.88)" fill="#eb001b"/><path d="M292.67,49.36A22.48,22.48,0,0,1,256.29,67a22.49,22.49,0,0,0,0-35.36,22.5,22.5,0,0,1,36.38,17.68Z" transform="translate(-9.04 -18.88)" fill="#f79e1b"/><path d="M652.73,59.81c.07-1.21.15-3.18.15-5V33.88h4.49V44.47h.07a6.46,6.46,0,0,1,5.7-2.85c4.34,0,7.45,3.62,7.41,9,0,6.39-4,9.57-8.07,9.57a6.12,6.12,0,0,1-5.62-3.07h-.08l-.22,2.67Zm4.64-7.34a4.71,4.71,0,0,0,.11,1.06,4.18,4.18,0,0,0,1.46,2.26,4.12,4.12,0,0,0,2.54.88c2.81,0,4.53-2.27,4.53-5.84,0-3.14-1.5-5.7-4.49-5.7a4.13,4.13,0,0,0-2.56,1,4.18,4.18,0,0,0-1.44,2.33,5.76,5.76,0,0,0-.14,1.17Z" transform="translate(-9.04 -18.88)" fill="#e36f10"/><path d="M678.71,52.18c.11,3.21,2.62,4.6,5.47,4.6a13.36,13.36,0,0,0,4.93-.8l.66,3.1a16.87,16.87,0,0,1-6.21,1.09c-5.77,0-9.16-3.54-9.16-9,0-4.93,3-9.57,8.69-9.57s7.67,4.75,7.67,8.66a10.08,10.08,0,0,1-.15,1.9ZM686.52,49c0-1.65-.69-4.35-3.69-4.35-2.77,0-3.94,2.52-4.12,4.35Z" transform="translate(-9.04 -18.88)" fill="#e36f10"/><path d="M695.84,35.53a37.65,37.65,0,0,1,6.87-.51c3.28,0,5.69.69,7.26,2a7,7,0,0,1,2.41,5.44,7.59,7.59,0,0,1-.47,3,7.5,7.5,0,0,1-1.65,2.57c-1.78,1.79-4.6,2.63-7.77,2.63a13.44,13.44,0,0,1-2.19-.15v9.28h-4.46ZM700.3,47a9,9,0,0,0,2.19.18c3.36,0,5.4-1.64,5.4-4.52s-1.9-4.2-5-4.2a12.53,12.53,0,0,0-2.59.22Z" transform="translate(-9.04 -18.88)"/><path d="M726.6,59.81l-.29-2h-.11a6.64,6.64,0,0,1-5.26,2.4,5.28,5.28,0,0,1-2.12-.31A5.4,5.4,0,0,1,717,58.77,5.21,5.21,0,0,1,715.78,57a5.4,5.4,0,0,1-.43-2.1c0-4.49,4-6.76,10.56-6.72v-.29c0-1.17-.48-3.11-3.62-3.11a9.37,9.37,0,0,0-4.78,1.32l-.88-2.93a12.89,12.89,0,0,1,6.43-1.57c5.69,0,7.34,3.62,7.34,7.49v6.43a29,29,0,0,0,.25,4.27ZM726,51.12c-3.18-.07-6.21.62-6.21,3.32a2.47,2.47,0,0,0,.13,1,2.35,2.35,0,0,0,.55.86,2.19,2.19,0,0,0,.86.55,2.32,2.32,0,0,0,1,.14,3.69,3.69,0,0,0,2.16-.65,3.62,3.62,0,0,0,1.35-1.8,3.07,3.07,0,0,0,.15-1Z" transform="translate(-9.04 -18.88)"/><path d="M741.22,37.06a2.26,2.26,0,0,1-.19,1,2.15,2.15,0,0,1-.56.81,2.3,2.3,0,0,1-.83.51,2.35,2.35,0,0,1-1,.13,2.21,2.21,0,0,1-.95-.15,2.37,2.37,0,0,1-.81-.51,2.27,2.27,0,0,1-.54-.8,2.4,2.4,0,0,1-.18-.95,2.52,2.52,0,0,1,.84-1.57,2.52,2.52,0,0,1,3.33,0,2.46,2.46,0,0,1,.83,1.57Zm-4.79,22.75V42h4.51V59.81Z" transform="translate(-9.04 -18.88)"/><path d="M763.46,33.88V54.81c0,1.82.07,3.79.15,5h-4L759.43,57h-.08a6.42,6.42,0,0,1-5.8,3.21c-4.24,0-7.6-3.61-7.6-9.09,0-6,3.69-9.5,8-9.5a5.72,5.72,0,0,1,2.8.52A5.65,5.65,0,0,1,759,44h0V33.88Zm-4.52,15.56a6.62,6.62,0,0,0-.11-1.17A3.91,3.91,0,0,0,757.47,46a4,4,0,0,0-2.51-.9c-2.89,0-4.49,2.56-4.49,5.88s1.6,5.63,4.45,5.63a4,4,0,0,0,3.87-3.18,4.91,4.91,0,0,0,.15-1.32Z" transform="translate(-9.04 -18.88)"/><path d="M132.73,76.86h57V48.38h-57Z" transform="translate(-9.04 -18.88)" fill="#182e66" fill-rule="evenodd"/><path d="M160,27.85l-2.74,12.8H154l2.74-12.8Zm13.93,8.26,1.74-4.8,1,4.8Zm3.69,4.54h3.07L178,27.85h-2.82a1.5,1.5,0,0,0-1.41.94l-5,11.86h3.48l.69-1.91h4.24ZM169,36.47c0-3.38-4.67-3.56-4.64-5.07,0-.46.45-.95,1.41-1.08a6.21,6.21,0,0,1,3.26.58l.58-2.72a8.86,8.86,0,0,0-3.1-.56c-3.27,0-5.57,1.73-5.59,4.23,0,1.84,1.65,2.87,2.9,3.48s1.72,1,1.72,1.59c0,.86-1,1.24-2,1.25a6.89,6.89,0,0,1-3.41-.81l-.6,2.81a10.09,10.09,0,0,0,3.68.68C166.69,40.85,169,39.13,169,36.47Zm-13.71-8.62-5.37,12.8h-3.5l-2.64-10.22a1.4,1.4,0,0,0-.79-1.12,13.83,13.83,0,0,0-3.26-1.09l.08-.37h5.63a1.55,1.55,0,0,1,1.53,1.3l1.39,7.41,3.45-8.71Z" transform="translate(-9.04 -18.88)" fill="#182e66" fill-rule="evenodd"/><path d="M146,64.16a3.15,3.15,0,0,0,1.56.42c.75,0,1.17-.36,1.17-.89s-.32-.77-1.14-1.07c-1.07-.37-1.75-.95-1.75-1.87s.88-1.86,2.29-1.86a3.38,3.38,0,0,1,1.54.32l-.27,1a2.75,2.75,0,0,0-1.3-.31c-.75,0-1.06.39-1.06.78s.37.72,1.23,1c1.13.43,1.66,1,1.66,1.92s-.78,1.94-2.44,1.94a3.9,3.9,0,0,1-1.76-.41Z" transform="translate(-9.04 -18.88)" fill="#fffffe" fill-rule="evenodd"/><path d="M154.53,62.58h-2.44v1.9h2.73v1h-3.91V59h3.76v1h-2.58v1.66h2.44Z" transform="translate(-9.04 -18.88)" fill="#fffffe" fill-rule="evenodd"/><path d="M160.39,65.26a4.35,4.35,0,0,1-1.68.29,3.06,3.06,0,0,1-3.3-3.26,3.25,3.25,0,0,1,3.46-3.4,3.63,3.63,0,0,1,1.57.28l-.25.94a3.1,3.1,0,0,0-1.27-.25,2.15,2.15,0,0,0-2.26,2.38,2.11,2.11,0,0,0,2.25,2.32,3.72,3.72,0,0,0,1.29-.23Z" transform="translate(-9.04 -18.88)" fill="#fffffe" fill-rule="evenodd"/><path d="M162.47,59v3.77c0,1.26.53,1.85,1.32,1.85s1.36-.59,1.36-1.85V59h1.18v3.69c0,2-1,2.88-2.58,2.88s-2.46-.84-2.46-2.87V59Z" transform="translate(-9.04 -18.88)" fill="#fffffe" fill-rule="evenodd"/><path d="M168.76,61.93h.7c.8,0,1.29-.42,1.29-1.06s-.49-1-1.26-1a3.33,3.33,0,0,0-.73.06Zm-1.17-2.85a10.79,10.79,0,0,1,1.78-.14,3,3,0,0,1,2,.52,1.64,1.64,0,0,1,.56,1.3,1.69,1.69,0,0,1-1.18,1.61v0a1.61,1.61,0,0,1,.9,1.25,15.23,15.23,0,0,0,.51,1.8H171a7.75,7.75,0,0,1-.43-1.52c-.2-.85-.49-1.12-1.16-1.14h-.6v2.66h-1.17Z" transform="translate(-9.04 -18.88)" fill="#fffffe" fill-rule="evenodd"/><path d="M176.57,62.58h-2.44v1.9h2.73v1H173V59h3.76v1h-2.58v1.66h2.44Z" transform="translate(-9.04 -18.88)" fill="#fffffe" fill-rule="evenodd"/><path d="M324.37,71.48h-1V60.27h1Zm7.09-11.21a7.68,7.68,0,0,1,2.52.39,5.33,5.33,0,0,1,1.89,1.12,4.91,4.91,0,0,1,1.21,1.77,6.65,6.65,0,0,1,0,4.65A5,5,0,0,1,335.87,70,5.33,5.33,0,0,1,334,71.09a7.68,7.68,0,0,1-2.52.39h-4.07V60.27Zm-3.1.93v9.35h3.1a6.59,6.59,0,0,0,2.16-.33,4.42,4.42,0,0,0,1.57-.94,3.83,3.83,0,0,0,1-1.48,5.81,5.81,0,0,0,0-3.86,3.79,3.79,0,0,0-1-1.47,4.14,4.14,0,0,0-1.57-.94,6.1,6.1,0,0,0-2.16-.33Zm20.44-1.06a5.87,5.87,0,0,1,1.39.16,5.59,5.59,0,0,1,1.26.46,5.13,5.13,0,0,1,1.06.73,4.69,4.69,0,0,1,.81,1l-.82.54a4,4,0,0,0-.68-.79,3.74,3.74,0,0,0-.87-.6,4,4,0,0,0-1-.38,4.79,4.79,0,0,0-1.13-.14,5.11,5.11,0,0,0-1.85.35,4.34,4.34,0,0,0-1.49,1,4.53,4.53,0,0,0-1,1.51,5.49,5.49,0,0,0,0,3.91,4.63,4.63,0,0,0,1,1.51,4.49,4.49,0,0,0,1.49,1,4.89,4.89,0,0,0,1.85.34,4.78,4.78,0,0,0,1.13-.13,4.08,4.08,0,0,0,1-.37,4.48,4.48,0,0,0,.87-.6,4,4,0,0,0,.69-.8l.79.58a5,5,0,0,1-.82,1,5.24,5.24,0,0,1-1.05.71,5.58,5.58,0,0,1-1.24.45,6.2,6.2,0,0,1-3.64-.27A5.49,5.49,0,0,1,344.72,70a5.4,5.4,0,0,1-1.2-1.81,6.38,6.38,0,0,1,0-4.63,5.39,5.39,0,0,1,3-3,6,6,0,0,1,2.26-.42Zm7.51,5.11a2.66,2.66,0,0,1,.52-.64,2.69,2.69,0,0,1,.65-.45,3.15,3.15,0,0,1,.73-.25,3.31,3.31,0,0,1,.77-.09,3.75,3.75,0,0,1,1.28.22,2.84,2.84,0,0,1,1,.6,2.77,2.77,0,0,1,.65,1,3.38,3.38,0,0,1,.22,1.26v4.62h-.9V67.14a3.26,3.26,0,0,0-.16-1,2.11,2.11,0,0,0-.47-.77,2.18,2.18,0,0,0-.76-.48,2.77,2.77,0,0,0-1-.17,2.8,2.8,0,0,0-1,.18,2.28,2.28,0,0,0-.79.51,2.64,2.64,0,0,0-.54.79,2.53,2.53,0,0,0-.19,1v4.29h-.91V60h.91Zm11.23-1.43a3.5,3.5,0,0,1,1.39.29,3.22,3.22,0,0,1,1.11.79,3.91,3.91,0,0,1,.74,1.22,4.29,4.29,0,0,1,.27,1.55v.19c0,.06,0,.12,0,.18h-6.29a3.15,3.15,0,0,0,.29,1.17,2.74,2.74,0,0,0,.63.87,2.67,2.67,0,0,0,.9.54,3.07,3.07,0,0,0,1.08.19,3.39,3.39,0,0,0,1.41-.29,4,4,0,0,0,1.13-.79l.48.63a4.76,4.76,0,0,1-.73.6,4.06,4.06,0,0,1-.75.38,3.16,3.16,0,0,1-.79.2,5.49,5.49,0,0,1-.8.06,4,4,0,0,1-1.52-.29,3.58,3.58,0,0,1-1.2-.79,3.68,3.68,0,0,1-.78-1.23,4.44,4.44,0,0,1-.28-1.57,4.2,4.2,0,0,1,.29-1.57,3.53,3.53,0,0,1,.78-1.23,3.45,3.45,0,0,1,1.18-.81,3.85,3.85,0,0,1,1.47-.29Zm0,.81a2.72,2.72,0,0,0-1,.2,2.62,2.62,0,0,0-1.41,1.37,3.3,3.3,0,0,0-.3,1.06h5.37a3.57,3.57,0,0,0-.26-1.07,2.79,2.79,0,0,0-.57-.83,2.45,2.45,0,0,0-.81-.54,2.5,2.5,0,0,0-1-.19Zm8.76-.81a4.16,4.16,0,0,1,1.56.3,3.38,3.38,0,0,1,1.21.87l-.59.62a3.35,3.35,0,0,0-1-.69,3,3,0,0,0-1.22-.24,2.86,2.86,0,0,0-2.06.86,2.71,2.71,0,0,0-.61,1,3.39,3.39,0,0,0,0,2.43,2.79,2.79,0,0,0,.6.95,2.69,2.69,0,0,0,.93.63,2.64,2.64,0,0,0,1.14.23,2.88,2.88,0,0,0,1.23-.25,3.42,3.42,0,0,0,1-.68l.57.62a3.41,3.41,0,0,1-1.22.87,4.15,4.15,0,0,1-3.1,0,3.53,3.53,0,0,1-1.21-.81,3.58,3.58,0,0,1-.8-1.23,4.44,4.44,0,0,1,0-3.09,3.7,3.7,0,0,1,2-2,4.15,4.15,0,0,1,1.55-.3Zm5.51,3.3H383l3.15-3.18h1.15l-3.57,3.56,3.63,4h-1.15L383,68h-1.22v3.53h-.91V60h.91Z" transform="translate(-9.04 -18.88)"/><path d="M340.33,28.29h-8.19V43.07h8.19Z" transform="translate(-9.04 -18.88)" fill="#ff5f00"/><path d="M332.66,35.68a9.41,9.41,0,0,1,3.57-7.39,9.41,9.41,0,1,0,0,14.78,9.41,9.41,0,0,1-3.57-7.39Z" transform="translate(-9.04 -18.88)" fill="#eb001b"/><path d="M351.38,35.68a9.43,9.43,0,0,1-5.27,8.46,9.33,9.33,0,0,1-9.88-1.07,9.41,9.41,0,0,0,0-14.78A9.35,9.35,0,0,1,350,30.69a9.48,9.48,0,0,1,1.43,5Z" transform="translate(-9.04 -18.88)" fill="#f79e1b"/><path d="M350.48,41.51V41.2h.12v-.06h-.31v.06h.13v.31Zm.6,0v-.37H351l-.11.25-.11-.25h-.1v.37h.07v-.28l.1.24h.07l.11-.24v.28Z" transform="translate(-9.04 -18.88)" fill="#f79e1b"/><path d="M433.52,70l-.11,1.93a15.36,15.36,0,0,1-.13,1.7c-.07.8-.15,2.72-1.18,2.72a.28.28,0,0,0-.15.06.3.3,0,0,0-.07.15v1.23a.29.29,0,0,0,0,.09l0,.08.08,0h.17a2.17,2.17,0,0,0,1.18-.19,2.15,2.15,0,0,0,.88-.81,4,4,0,0,0,.46-1A6.65,6.65,0,0,0,435,74.8c.07-.45.12-.93.16-1.46s.09-1.11.13-1.73v-.88h2.47v7a.29.29,0,0,0,0,.09l.05.07.08,0a.11.11,0,0,0,.08,0h1.46a.14.14,0,0,0,.09,0l.08-.05a.22.22,0,0,0,.05-.08.28.28,0,0,0,0-.09v-8a.69.69,0,0,0-.05-.24.62.62,0,0,0-.37-.34.69.69,0,0,0-.25,0h-4.84a.69.69,0,0,0-.42.18.65.65,0,0,0-.19.41,1,1,0,0,1,0,.25Zm-15.13,8h3.27a2.89,2.89,0,0,0,1.13-.15,2.84,2.84,0,0,0,1-.59,2.92,2.92,0,0,0,.66-.93,2.64,2.64,0,0,0,.24-1.11,2.17,2.17,0,0,0,0-.51,2.83,2.83,0,0,0-1-1.68,2.9,2.9,0,0,0-1.83-.67h-2.2V70.77h3.81a.17.17,0,0,0,.1,0l.08-.05a.12.12,0,0,0,0-.08.16.16,0,0,0,0-.1V69.4c0-.15,0-.28-.23-.27H418.4a.73.73,0,0,0-.25,0,.5.5,0,0,0-.22.13.57.57,0,0,0-.2.45v7.62a.6.6,0,0,0,0,.24.6.6,0,0,0,.14.21.86.86,0,0,0,.2.13.51.51,0,0,0,.24,0Zm40.37-.26v-3h2.1a2.8,2.8,0,0,0,2.8-2.77,2.84,2.84,0,0,0-.57-1.65,2.9,2.9,0,0,0-1.43-1,4.15,4.15,0,0,0-1-.12h-3.2a.67.67,0,0,0-.24,0,.53.53,0,0,0-.2.13.62.62,0,0,0-.15.2.59.59,0,0,0-.05.23v8a.29.29,0,0,0,0,.09l.05.07.07,0a.11.11,0,0,0,.08,0h1.49a.2.2,0,0,0,.11,0,.19.19,0,0,0,.07-.08.25.25,0,0,0,0-.15Zm2.9-5.73a1.18,1.18,0,0,1-.09.46,1.07,1.07,0,0,1-.66.63,1,1,0,0,1-.46.07h-1.72V70.78h1.64a1.34,1.34,0,0,1,.49,0,1.18,1.18,0,0,1,.42.24,1.12,1.12,0,0,1,.28.4,1.1,1.1,0,0,1,.1.47Zm-7.92,4.16.49,1.65a.2.2,0,0,0,.22.2h1.6a.12.12,0,0,0,.1,0,.16.16,0,0,0,.08-.06.18.18,0,0,0,0-.09.21.21,0,0,0,0-.11l-2.6-7.85c-.13-.38-.31-.69-.76-.69h-1.13a.7.7,0,0,0-.32.05.67.67,0,0,0-.26.21,1.4,1.4,0,0,0-.2.43l-2.62,7.88a.38.38,0,0,0,0,.1.3.3,0,0,0,0,.1l.07.07.1,0h1.54a.22.22,0,0,0,.14,0,.18.18,0,0,0,.08-.11.2.2,0,0,0,0-.11l.49-1.61Zm-2.44-1.56.48-1.61.48-1.8h.07l.47,1.8.48,1.61ZM446,73.23v-.06a2,2,0,0,0,.68-.64,2.62,2.62,0,0,0,.4-.94l.58-2.25a.14.14,0,0,0,0-.09.2.2,0,0,0,0-.08.24.24,0,0,0-.08-.06l-.09,0H446a.38.38,0,0,0-.15,0c-.05,0-.08.07-.1.15l-.57,2.13A1.8,1.8,0,0,1,445,72a1.12,1.12,0,0,1-.38.34,1.44,1.44,0,0,1-.41.15h-1.4V69.34a.25.25,0,0,0,0-.08l-.05-.07-.07,0-.08,0h-1.48a.22.22,0,0,0-.15.06.2.2,0,0,0-.08.14v8.46a.29.29,0,0,0,0,.09l.05.06s0,0,.08,0a.11.11,0,0,0,.08,0h1.47a.11.11,0,0,0,.08,0l.07,0a.18.18,0,0,0,.05-.07.19.19,0,0,0,0-.08V74h1a3.65,3.65,0,0,1,.74.08,1.14,1.14,0,0,1,.51.32,1.86,1.86,0,0,1,.33.66l.78,2.75a.23.23,0,0,0,.08.11.17.17,0,0,0,.12,0h1.47a.17.17,0,0,0,.1,0,.13.13,0,0,0,.07-.06.14.14,0,0,0,.05-.08.17.17,0,0,0,0-.1l-.79-2.94a3.33,3.33,0,0,0-.16-.51,1.52,1.52,0,0,0-.57-.76,3.16,3.16,0,0,0-.52-.26ZM431.42,77.7V76.54a.25.25,0,0,0,0-.08.18.18,0,0,0-.05-.07.15.15,0,0,0-.06,0l-.09,0h-3.43a.56.56,0,0,1-.25,0,.51.51,0,0,1-.21-.15.5.5,0,0,1-.13-.22.75.75,0,0,1,0-.26V74h3.65a.14.14,0,0,0,.09,0l.07,0,.05-.07a.28.28,0,0,0,0-.09V72.56a.11.11,0,0,0,0-.08.22.22,0,0,0-.05-.08.2.2,0,0,0-.08,0h-3.72v-.94a.65.65,0,0,1,.63-.63h3.42a.14.14,0,0,0,.09,0l.07,0,.05-.07a.28.28,0,0,0,0-.09V69.34a.11.11,0,0,0,0-.08.22.22,0,0,0,0-.08l-.08,0h-.09l-3.52,0a2.4,2.4,0,0,0-1.68.69,2.44,2.44,0,0,0-.71,1.67v4.19a2.38,2.38,0,0,0,.7,1.65,2.34,2.34,0,0,0,1.64.68h3.64a.11.11,0,0,0,.08,0l.07,0,.05-.07a.28.28,0,0,0,0-.09.25.25,0,0,0,0-.07Zm36.74-6.92v7a.29.29,0,0,1,0,.09l-.05.06a.13.13,0,0,1-.07,0,.14.14,0,0,1-.09,0h-1.46a.11.11,0,0,1-.08,0s-.05,0-.08,0l-.05-.06a.29.29,0,0,1,0-.09v-7h-2.3a.12.12,0,0,1-.08,0l-.06,0a.35.35,0,0,1-.05-.08s0,0,0-.08V69.35s0,0,0-.08l.05-.07.06,0,.08,0h6.56l.08,0,.07,0a.21.21,0,0,1,.05.15v1.21a.19.19,0,0,1,0,.08.3.3,0,0,1,0,.08l-.07,0a.11.11,0,0,1-.08,0ZM422.72,75.1a1.1,1.1,0,0,1-.08.48,1.16,1.16,0,0,1-1.15.72h-1.83V74h1.84A1.21,1.21,0,0,1,422,74a1.06,1.06,0,0,1,.39.24,1.31,1.31,0,0,1,.27.38,1.13,1.13,0,0,1,.1.44Z" transform="translate(-9.04 -18.88)" fill="#005894"/><path d="M467.89,45.74l-7.2-7.2-2.88-2.88,5.24,2.88a.48.48,0,0,0,.5-.5V28.57a.5.5,0,0,0-.14-.35.53.53,0,0,0-.36-.15H448.8l5.8-1.64a.51.51,0,0,0,.15-.35.55.55,0,0,0-.15-.36L447.9,19a.5.5,0,0,0-.35-.14.52.52,0,0,0-.36.14l-7.12,7.13-3,3.08,3-5.41a.5.5,0,0,0-.14-.35.53.53,0,0,0-.36-.15h-9.48a.51.51,0,0,0-.5.5V38l-1.68-5.79a.5.5,0,0,0-.35-.14.52.52,0,0,0-.35.14l-6.7,6.7a1,1,0,0,0-.11.17.58.58,0,0,0,0,.19.5.5,0,0,0,.15.35l10.08,10.08-5.23-2.89a.51.51,0,0,0-.5.5v9.48a.53.53,0,0,0,.15.36.5.5,0,0,0,.35.14h14.3L433.87,59a.54.54,0,0,0-.14.36.5.5,0,0,0,.14.35l6.7,6.7a.49.49,0,0,0,.36.15.47.47,0,0,0,.35-.15l7.09-7.09,2.94-3-2.94,5.26a.53.53,0,0,0,.15.36.5.5,0,0,0,.35.14h9.48a.58.58,0,0,0,.19,0,.64.64,0,0,0,.16-.11.5.5,0,0,0,.11-.17.58.58,0,0,0,0-.19V47.34l1.69,5.81a.49.49,0,0,0,.36.15.47.47,0,0,0,.35-.15l6.7-6.7a.51.51,0,0,0,.15-.35.55.55,0,0,0-.15-.36Zm-19,1.1a.51.51,0,0,0-.5.5v4.45l3,3.79-6.7-6.7a.5.5,0,0,0-.35-.14.52.52,0,0,0-.36.14l-3.3,3.22-.59,4.75v-9.5a.49.49,0,0,0-.15-.35.56.56,0,0,0-.35-.15h-4.79l-3.53,2.89L438,43a.36.36,0,0,0,.11-.16.43.43,0,0,0,0-.19.41.41,0,0,0,0-.19.45.45,0,0,0-.11-.17L434.66,39l-4.55-.44h9.48a.48.48,0,0,0,.5-.5V33.52l-3-3.71,6.7,6.7a.49.49,0,0,0,.36.15.47.47,0,0,0,.35-.15l3.29-3.3.49-4.64V38a.53.53,0,0,0,.15.36.5.5,0,0,0,.35.14h4.72l3.58-2.88-6.7,6.7a.54.54,0,0,0-.14.36.5.5,0,0,0,.14.35l3.28,3.28,4.61.49Z" transform="translate(-9.04 -18.88)" fill="#005894" fill-rule="evenodd"/><path d="M514.25,48l0,0a.18.18,0,0,1,0-.12l0-.06,1.22-1.23,1-1-1.21,1h-1.49a.15.15,0,0,1-.11,0,.17.17,0,0,1-.06-.12v-3.1l-.17,1.54-1.06,1.05a.16.16,0,0,1-.11,0,.17.17,0,0,1-.12,0l-1.23-1.23-1-1,1,1.21v1.49a.16.16,0,0,1,0,.12.17.17,0,0,1-.12,0h-3.09l1.54.18,1,1.05a.21.21,0,0,1,0,.06.1.1,0,0,1,0,.12.1.1,0,0,1,0,0L508,50.16l1.21-1h1.49a.18.18,0,0,1,.12.05.15.15,0,0,1,0,.11V52.5l.18-1.54,1.05-1.06a.21.21,0,0,1,.12,0,.21.21,0,0,1,.11,0l2.2,2.2-1-1.22V49.4a.17.17,0,0,1,.06-.11.16.16,0,0,1,.11,0h3.1l-1.54-.17Z" transform="translate(-9.04 -18.88)" fill="#005894" fill-rule="evenodd"/><path d="M522.34,34.89H502.12a2.92,2.92,0,0,0-2.9,2.9V58a3,3,0,0,0,.85,2,2.88,2.88,0,0,0,2.05.85h20.22a2.87,2.87,0,0,0,2-.85,2.91,2.91,0,0,0,.85-2V37.79a2.92,2.92,0,0,0-2.9-2.9ZM520,49.12l-2.2,2.19a.16.16,0,0,1-.11,0,.17.17,0,0,1-.12,0l-.54-.54v3.3a.16.16,0,0,1,0,.12.17.17,0,0,1-.12,0h-3.1a.15.15,0,0,1-.11,0,.17.17,0,0,1-.06-.12V53.3l-2.33,2.33a.07.07,0,0,1-.05,0l-.06,0-.07,0s0,0-.05,0l-2.19-2.19,0,0a.18.18,0,0,1,0-.12l0-.06.54-.54h-3.3a.15.15,0,0,1-.11,0,.17.17,0,0,1-.05-.12V49.4a.17.17,0,0,1,.16-.16h.77l-2.34-2.33a.15.15,0,0,1,0-.11.19.19,0,0,1,0-.12l2.17-2.18a.21.21,0,0,1,.12,0,.21.21,0,0,1,.11,0l.55.55v-3.3a.16.16,0,0,1,.05-.11.24.24,0,0,1,.11-.06h3.1a.23.23,0,0,1,.12.06.15.15,0,0,1,0,.11v.75l2.34-2.33a.21.21,0,0,1,.12,0,.21.21,0,0,1,.11,0l2.23,2.18,0,.06a.1.1,0,0,1,0,.12.1.1,0,0,1,0,0l-.54.55h3.3a.18.18,0,0,1,.12,0,.15.15,0,0,1,0,.11v3.1a.16.16,0,0,1,0,.12.17.17,0,0,1-.12,0h-.76L520,48.89a.15.15,0,0,1,0,.13A.11.11,0,0,1,520,49.12Z" transform="translate(-9.04 -18.88)" fill="#005894" fill-rule="evenodd"/><path d="M557.9,36.39l-.2,3.34c-.07,1.14-.14,2.12-.22,3-.12,1.39-.26,4.72-2.06,4.72h-.07a.47.47,0,0,0-.25.11.42.42,0,0,0-.12.25V50a.68.68,0,0,0,0,.15.57.57,0,0,0,.08.13.35.35,0,0,0,.13.08.32.32,0,0,0,.14,0h.16a3.58,3.58,0,0,0,2-.31,3.64,3.64,0,0,0,1.53-1.38,6.39,6.39,0,0,0,.81-1.66,12,12,0,0,0,.48-2.07c.12-.77.22-1.61.29-2.53s.15-1.92.22-3l.09-1.53h4.28V49.94a.33.33,0,0,0,0,.15.38.38,0,0,0,.09.13.57.57,0,0,0,.13.08.38.38,0,0,0,.15,0h2.54a.29.29,0,0,0,.16,0,.26.26,0,0,0,.13-.08.38.38,0,0,0,.09-.13.29.29,0,0,0,0-.16V36a.9.9,0,0,0-.1-.42,1,1,0,0,0-.25-.36,1.2,1.2,0,0,0-.37-.23,1.31,1.31,0,0,0-.44-.07H559a1.14,1.14,0,0,0-.72.3,1.19,1.19,0,0,0-.34.7v.44ZM531.56,50.31h5.77a4.94,4.94,0,0,0,4.84-2.87,5,5,0,0,0,.43-1.94,4.37,4.37,0,0,0-.05-.88,4.92,4.92,0,0,0-4.89-4.12h-3.89V37.77h6.63a.29.29,0,0,0,.16,0,.42.42,0,0,0,.14-.09.22.22,0,0,0,.08-.13.33.33,0,0,0,0-.17v-2c0-.27-.1-.49-.4-.48h-8.74a1.09,1.09,0,0,0-.44.06,1,1,0,0,0-.38.22,1.18,1.18,0,0,0-.26.37,1.07,1.07,0,0,0-.09.43V49.23a1.16,1.16,0,0,0,.08.42,1,1,0,0,0,.58.58,1,1,0,0,0,.41.08Zm70.1-.46V44.7h3.65a4.74,4.74,0,0,0,2.33-.61,4.89,4.89,0,0,0,2.51-3.93,4.85,4.85,0,0,0-.42-2.37,4.8,4.8,0,0,0-1.21-1.65,4.89,4.89,0,0,0-1.79-1,6,6,0,0,0-1.69-.21h-5.57a1.1,1.1,0,0,0-1.12,1v14a.4.4,0,0,0,0,.15.5.5,0,0,0,.08.12.57.57,0,0,0,.13.08.22.22,0,0,0,.14,0h2.59a.3.3,0,0,0,.19-.05.32.32,0,0,0,.14-.14.61.61,0,0,0,0-.27Zm5-10a2,2,0,0,1-2,2h-3v-4h2.86a2.15,2.15,0,0,1,.8.11,2,2,0,0,1,.69.41,2.24,2.24,0,0,1,.48.66,1.92,1.92,0,0,1,.17.78ZM593,47.15l.86,2.85c.07.26.21.35.37.35H597a.25.25,0,0,0,.17,0,.36.36,0,0,0,.14-.11.41.41,0,0,0,.07-.15.37.37,0,0,0,0-.18L592.8,36.16c-.21-.67-.53-1.2-1.31-1.2h-2a1.21,1.21,0,0,0-.56.1,1.19,1.19,0,0,0-.44.36,2.39,2.39,0,0,0-.35.74l-4.48,13.66a.37.37,0,0,0,0,.18.31.31,0,0,0,.06.16.33.33,0,0,0,.13.11.35.35,0,0,0,.17,0h2.65a.31.31,0,0,0,.23,0,.34.34,0,0,0,.15-.18.6.6,0,0,0,.06-.19l.86-2.79Zm-4.24-2.73.83-2.78.84-3.13h.13l.81,3.13.84,2.78Zm-9.25-2.26v-.11a3.67,3.67,0,0,0,1.17-1.15,4.37,4.37,0,0,0,.69-1.63l1-3.92a.43.43,0,0,0,0-.16.39.39,0,0,0-.08-.14.45.45,0,0,0-.13-.1.41.41,0,0,0-.16,0h-2.32a1,1,0,0,0-.25,0,.43.43,0,0,0-.12.11.47.47,0,0,0-.06.15l-1,3.7a3.12,3.12,0,0,1-.47,1.07,1.87,1.87,0,0,1-.65.6,2,2,0,0,1-.72.25,2.66,2.66,0,0,1-.69,0H574V35.28a.36.36,0,0,0-.11-.25.36.36,0,0,0-.26-.11H571l-.14,0a.35.35,0,0,0-.13.08.44.44,0,0,0-.08.11.27.27,0,0,0,0,.14V50a.33.33,0,0,0,0,.14.36.36,0,0,0,.08.12.33.33,0,0,0,.13.07.23.23,0,0,0,.14,0h2.55a.38.38,0,0,0,.15,0,.35.35,0,0,0,.13-.08l.09-.11a.4.4,0,0,0,0-.15V43.44h1.77a5.13,5.13,0,0,1,1.3.14,1.89,1.89,0,0,1,.88.55,3.26,3.26,0,0,1,.57,1.15l1.35,4.77a.33.33,0,0,0,.13.19.31.31,0,0,0,.22.07h2.55a.32.32,0,0,0,.17,0,.32.32,0,0,0,.13-.1.28.28,0,0,0,.08-.15.33.33,0,0,0,0-.17l-1.36-5.09a7.76,7.76,0,0,0-.28-.9,3.18,3.18,0,0,0-.38-.73,2.59,2.59,0,0,0-.61-.58,4.09,4.09,0,0,0-1-.45Zm-25.27,7.69v-2a.36.36,0,0,0,0-.14.36.36,0,0,0-.08-.12.47.47,0,0,0-.12-.09.4.4,0,0,0-.15,0h-6a1.07,1.07,0,0,1-.43-.09,1.11,1.11,0,0,1-.59-.64,1.09,1.09,0,0,1-.06-.44v-3h6.34a.22.22,0,0,0,.14,0,.35.35,0,0,0,.13-.08.44.44,0,0,0,.08-.11.4.4,0,0,0,0-.15V40.89c0-.22-.15-.37-.42-.37h-6.3V38.88a1.15,1.15,0,0,1,.08-.41,1.19,1.19,0,0,1,.24-.36,1,1,0,0,1,.35-.23,1,1,0,0,1,.41-.09h6a.26.26,0,0,0,.15,0,.26.26,0,0,0,.13-.08.36.36,0,0,0,.08-.12.37.37,0,0,0,0-.15V35.29a.4.4,0,0,0,0-.15.34.34,0,0,0-.09-.12.35.35,0,0,0-.13-.08.44.44,0,0,0-.16,0h-6.2A4.17,4.17,0,0,0,543.48,39V46.3a4.12,4.12,0,0,0,1.22,2.83,4,4,0,0,0,2.84,1.17h6.32a.26.26,0,0,0,.15,0,.2.2,0,0,0,.12-.08.27.27,0,0,0,.09-.12.39.39,0,0,0,0-.15Zm63.81-12V50a.4.4,0,0,1,0,.15.31.31,0,0,1-.09.11.32.32,0,0,1-.12.08.38.38,0,0,1-.15,0h-2.55a.34.34,0,0,1-.27-.09.41.41,0,0,1-.13-.26V37.79h-4a.35.35,0,0,1-.14,0,.31.31,0,0,1-.11-.09.32.32,0,0,1-.08-.12.77.77,0,0,1,0-.15V35.31a.36.36,0,0,1,0-.14.54.54,0,0,1,.07-.13l.12-.08.14,0h11.4l.14,0a.27.27,0,0,1,.12.09.29.29,0,0,1,.07.12.24.24,0,0,1,0,.14V37.4a.36.36,0,0,1-.35.39ZM539.1,45.37a1.94,1.94,0,0,1-.14.83,2,2,0,0,1-1.16,1.14,2.14,2.14,0,0,1-.83.11h-3.19V43.31H537a2.21,2.21,0,0,1,.81.11,2.1,2.1,0,0,1,.7.43,2,2,0,0,1,.47.67,2,2,0,0,1,.16.79Z" transform="translate(-9.04 -18.88)" fill="#005894"/><path d="M620.75,58.74a.72.72,0,0,0-.2-.53.83.83,0,0,0-.27-.17.86.86,0,0,0-.32,0h-1.3V59.5H620a.74.74,0,0,0,.39-.08.58.58,0,0,0,.25-.19.57.57,0,0,0,.12-.26,1,1,0,0,0,0-.24Zm-3,2a.61.61,0,0,1-.3,0,.63.63,0,0,1-.27-.16.76.76,0,0,1-.13-.47v-5q0-.21.24-.21h1.33a.2.2,0,0,1,0,.08.14.14,0,0,1,0,.09v1.63H620a3,3,0,0,1,1.29.23,1.78,1.78,0,0,1,.72.55,1.47,1.47,0,0,1,.31.67,2.74,2.74,0,0,1,.06.56,1.86,1.86,0,0,1-.16.81,1.83,1.83,0,0,1-.47.63,2,2,0,0,1-.7.43,2.35,2.35,0,0,1-.87.16Zm-2.83-5.88a.76.76,0,0,1,.53.16.75.75,0,0,1,.14.52v5.18a.34.34,0,0,1-.2,0h-1.13a.26.26,0,0,1-.21,0,.2.2,0,0,1,0-.09.29.29,0,0,1,0-.09v-4.3h-1.38v.58q-.06,1-.15,1.68a4.13,4.13,0,0,1-.3,1.21,1.94,1.94,0,0,1-.6.81,3,3,0,0,1-1,.51.28.28,0,0,1-.22,0,.42.42,0,0,1-.11-.15l-.3-.76a.37.37,0,0,1,0-.21.46.46,0,0,1,.16-.14,1.66,1.66,0,0,0,.49-.3,1.15,1.15,0,0,0,.3-.48,3,3,0,0,0,.18-.84c0-.35.09-.8.13-1.37l.07-1.22a.59.59,0,0,1,.7-.66Zm-7.46,2.94a4,4,0,0,0-.06-.69,1.52,1.52,0,0,0-.19-.54,1,1,0,0,0-.35-.35,1.1,1.1,0,0,0-1.4.32,2.33,2.33,0,0,0-.29,1.23,2.65,2.65,0,0,0,.26,1.28.9.9,0,0,0,.38.34.83.83,0,0,0,.49.09.89.89,0,0,0,.53-.13.87.87,0,0,0,.36-.35,1.4,1.4,0,0,0,.2-.54,2.91,2.91,0,0,0,.06-.6Zm1.69,0a3.28,3.28,0,0,1-.71,2.28,2.64,2.64,0,0,1-2.15.81,2.56,2.56,0,0,1-1.16-.16,2.63,2.63,0,0,1-1-.65,3.45,3.45,0,0,1-.67-2.26,4.39,4.39,0,0,1,.2-1.29,3,3,0,0,1,.56-1,2.65,2.65,0,0,1,.88-.6,3.43,3.43,0,0,1,1.18-.22,2.81,2.81,0,0,1,1.15.18,2.65,2.65,0,0,1,1,.64,3.26,3.26,0,0,1,.71,2.3Zm-8.37,0a2.57,2.57,0,0,0-.09-.77,1.45,1.45,0,0,0-.26-.51,1.21,1.21,0,0,0-.43-.27,2.17,2.17,0,0,0-.57-.07H599a3.43,3.43,0,0,0-.44.09v3.06a3.18,3.18,0,0,0,.52.1h.41a1.08,1.08,0,0,0,.5-.09,1.1,1.1,0,0,0,.42-.29,1.79,1.79,0,0,0,.34-1.23Zm-2.2,5.07a.22.22,0,0,1,0,.16.31.31,0,0,1-.19,0h-1.21a.28.28,0,0,1-.18,0,.35.35,0,0,1-.05-.16v-7.3a.6.6,0,0,1,0-.19.74.74,0,0,1,.19-.16,5,5,0,0,1,1.2-.34,10.86,10.86,0,0,1,1.27-.1,3.39,3.39,0,0,1,1.34.24,2.34,2.34,0,0,1,.87.65,2.57,2.57,0,0,1,.48,1,4.36,4.36,0,0,1,.15,1.19,4.25,4.25,0,0,1-.16,1.18,2.81,2.81,0,0,1-.48,1,2.14,2.14,0,0,1-.83.66,2.59,2.59,0,0,1-1.17.24,3.31,3.31,0,0,1-.63,0,3.57,3.57,0,0,1-.64-.11Zm-4.71-4.76h-1.22a1.39,1.39,0,0,0-.33.1,1,1,0,0,0-.26.24,1,1,0,0,0-.1.43.59.59,0,0,0,.06.32.58.58,0,0,0,.21.23,1.27,1.27,0,0,0,.71.15h.68l.25-.07ZM595.47,60a.53.53,0,0,1,0,.25.37.37,0,0,1-.2.19,2.13,2.13,0,0,1-.55.2q-.3.07-.6.12l-.62.07h-.59a4.14,4.14,0,0,1-1.26-.15,2.06,2.06,0,0,1-.8-.39,1.36,1.36,0,0,1-.42-.6,2.16,2.16,0,0,1,0-1.53,1.84,1.84,0,0,1,.44-.63,2,2,0,0,1,.73-.42,3.75,3.75,0,0,1,1-.15h1.23v-.18a.76.76,0,0,0,0-.3.6.6,0,0,0-.14-.26.92.92,0,0,0-.29-.17A2.09,2.09,0,0,0,593,56h-.8l-.42.07-.35.09a.26.26,0,0,1-.21,0,.26.26,0,0,1-.07-.15l-.18-.78a.09.09,0,0,1,0-.07.14.14,0,0,1,0-.09L591,55l.08,0a5.66,5.66,0,0,1,1.06-.26,10.17,10.17,0,0,1,1.1-.08,2.64,2.64,0,0,1,1.78.52,2.14,2.14,0,0,1,.45.71,2,2,0,0,1,.12.83Zm-6.55.51v.17a.26.26,0,0,1-.21,0h-1.22c-.15,0-.23-.07-.23-.22V54.43h-3v6.14a.25.25,0,0,1,0,.17.23.23,0,0,1-.2,0h-1.23c-.16,0-.24-.07-.24-.22V53.7a.94.94,0,0,1,.17-.58A.82.82,0,0,1,583,53a.57.57,0,0,1,.29,0h5a.75.75,0,0,1,.3,0,.93.93,0,0,1,.26.15.87.87,0,0,1,.16.58Zm-9.26-4.32v4.33a.21.21,0,0,1,0,.19.38.38,0,0,1-.21,0h-1.11c-.17,0-.26-.08-.26-.23V56.23h-1.62c-.15,0-.22-.08-.22-.25V55l.09,0h4.93a.35.35,0,0,1,.18.05v1c0,.17-.07.25-.22.25Zm-6.6-.12a1.15,1.15,0,0,0-.41.08,1.16,1.16,0,0,0-.34.24,1.51,1.51,0,0,0-.33.83h2.09a1.77,1.77,0,0,0,0-.46,1,1,0,0,0-.16-.36.89.89,0,0,0-.3-.24,1.38,1.38,0,0,0-.53-.09Zm0-1.35a2.59,2.59,0,0,1,1.07.13,2.53,2.53,0,0,1,.93.53,2.58,2.58,0,0,1,.52.87,2.43,2.43,0,0,1,.14,1,1.09,1.09,0,0,1-.23.8.81.81,0,0,1-.28.17.75.75,0,0,1-.33,0H572a2,2,0,0,0,.12.6,1.1,1.1,0,0,0,.29.38,1,1,0,0,0,.42.2,2.29,2.29,0,0,0,.52.05,2.06,2.06,0,0,0,.66-.08,2.64,2.64,0,0,0,.62-.2.31.31,0,0,1,.19,0,.21.21,0,0,1,.09.1l.36.81a.24.24,0,0,1,0,.08.14.14,0,0,1,0,.07.28.28,0,0,1-.12.12,2.7,2.7,0,0,1-1,.38,4.21,4.21,0,0,1-1,.12A2.85,2.85,0,0,1,572,60.8a2.88,2.88,0,0,1-1-.6,3.23,3.23,0,0,1-.71-2.3,4.27,4.27,0,0,1,.2-1.32,3.09,3.09,0,0,1,.56-1,2.54,2.54,0,0,1,.87-.61,3.05,3.05,0,0,1,1.19-.21Zm-7.71,5.8a.21.21,0,0,1,0,.19.37.37,0,0,1-.21,0H564c-.16,0-.25-.08-.25-.23v-5.4c0-.14.09-.21.25-.21h1.12a.37.37,0,0,1,.21,0,.25.25,0,0,1,0,.17V57h2.09V55.12c0-.14.08-.21.25-.21H569s0,.08,0,.17v5.63a.37.37,0,0,1-.21,0h-1.09c-.17,0-.25-.08-.25-.23V58.31h-2.09Zm-4.56-2.75a2.57,2.57,0,0,0-.09-.77,1.45,1.45,0,0,0-.26-.51,1.21,1.21,0,0,0-.43-.27,2.17,2.17,0,0,0-.57-.07H559a3.43,3.43,0,0,0-.44.09v3.06a3.18,3.18,0,0,0,.52.1h.41a1.08,1.08,0,0,0,.5-.09,1.1,1.1,0,0,0,.42-.29,1.85,1.85,0,0,0,.34-1.25Zm-2.2,5.07a.22.22,0,0,1,0,.16.34.34,0,0,1-.2,0h-1.15a.28.28,0,0,1-.18,0,.13.13,0,0,1,0-.07.28.28,0,0,1,0-.09v-7.3a.6.6,0,0,1,0-.19.74.74,0,0,1,.19-.16,4.57,4.57,0,0,1,1.2-.34,9.06,9.06,0,0,1,1.27-.1A3.39,3.39,0,0,1,561,55a2.34,2.34,0,0,1,.87.65,2.57,2.57,0,0,1,.48,1,4.78,4.78,0,0,1,.14,1.19,4.25,4.25,0,0,1-.15,1.18,2.6,2.6,0,0,1-.49,1,2.11,2.11,0,0,1-.82.66,2.66,2.66,0,0,1-1.18.24,3.21,3.21,0,0,1-.62,0,3.57,3.57,0,0,1-.64-.11Zm-5.4-6.77a1.15,1.15,0,0,0-.41.08,1.16,1.16,0,0,0-.34.24,1.52,1.52,0,0,0-.34.83h2.1a1.77,1.77,0,0,0,0-.46,1,1,0,0,0-.17-.36.8.8,0,0,0-.3-.24,1.28,1.28,0,0,0-.55-.09Zm0-1.35a2.59,2.59,0,0,1,1.07.13,2.62,2.62,0,0,1,.93.53,2.58,2.58,0,0,1,.52.87,2.43,2.43,0,0,1,.14,1,1.09,1.09,0,0,1-.23.8.8.8,0,0,1-.61.21h-3a2,2,0,0,0,.12.6,1.08,1.08,0,0,0,.28.38,1,1,0,0,0,.42.2,2.29,2.29,0,0,0,.52.05,2.06,2.06,0,0,0,.66-.08,2.31,2.31,0,0,0,.63-.2.31.31,0,0,1,.19,0,.21.21,0,0,1,.09.1l.36.81a.19.19,0,0,1,0,.15.28.28,0,0,1-.12.12,2.7,2.7,0,0,1-1,.38,4.21,4.21,0,0,1-1,.12,2.85,2.85,0,0,1-1.16-.13,2.88,2.88,0,0,1-1-.6,3.23,3.23,0,0,1-.71-2.3,4.27,4.27,0,0,1,.2-1.32,3,3,0,0,1,.56-1A2.54,2.54,0,0,1,552,55a3.05,3.05,0,0,1,1.19-.21Zm-4.91,1.47v4.33c0,.1,0,.16,0,.19a.34.34,0,0,1-.2,0h-1.11c-.17,0-.26-.08-.26-.23V56.23h-1.59c-.15,0-.22-.08-.22-.25V55s.08-.05.18-.05h4.84a.35.35,0,0,1,.18.05v1c0,.17-.07.25-.22.25Zm-8,4.33c0,.1,0,.16,0,.19a.37.37,0,0,1-.21,0h-1.11c-.17,0-.25-.08-.25-.23v-5.4c0-.14.08-.21.25-.21h1.32s0,.08,0,.17V57h2.1V55.12q0-.21.24-.21h1.13a.34.34,0,0,1,.2,0,.2.2,0,0,1,0,.08.14.14,0,0,1,0,.09v5.44a.25.25,0,0,1,0,.19.34.34,0,0,1-.2,0h-1.22l-.08-.05a.24.24,0,0,1-.06-.08.31.31,0,0,1,0-.1V58.31h-2.1Zm-4.92-5-1,1.68-1.89,3.06-.18.26a.61.61,0,0,1-.17.15.48.48,0,0,1-.21.07h-.73a.55.55,0,0,1-.31,0,.8.8,0,0,1-.27-.18,1,1,0,0,1-.15-.57V53.15q0-.21.24-.21h1.39a.25.25,0,0,1,0,.17v5h.07l1-1.57,1.94-3.18a1.44,1.44,0,0,1,.18-.25l.16-.16a.86.86,0,0,1,.21-.07h.73a.8.8,0,0,1,.58.17,1,1,0,0,1,.15.61v6.85c0,.15-.08.22-.23.22h-1.21a.23.23,0,0,1-.2,0,.25.25,0,0,1,0-.17v-5Z" transform="translate(-9.04 -18.88)" fill="#005894" fill-rule="evenodd"/><rect x="788.77" y="2.62" width="29.65" height="7.37" fill="#191919"/><rect x="788.77" y="39.43" width="29.65" height="7.37" fill="#191919"/><rect x="781.37" y="10" width="7.43" height="29.43" fill="#191919"/><rect x="818.45" y="10" width="7.43" height="29.43" fill="#191919"/><polygon points="789.93 60.42 791.53 60.42 791.53 55.54 794.68 55.54 794.68 60.42 796.28 60.42 796.28 54.15 789.93 54.15 789.93 60.42" fill="#191919"/><polygon points="811.81 55.54 814.28 55.54 814.28 60.42 815.88 60.42 815.88 55.54 818.36 55.54 818.36 54.15 811.81 54.15 811.81 55.54" fill="#191919"/><path d="M807.39,77.74h-1V79.3h.5a1.74,1.74,0,0,0,1.92-1.91v-3h2.77v4.88h1.57V73h-5.83v4.74Z" transform="translate(-9.04 -18.88)" fill="#191919"/><polygon points="820.95 58.57 820.87 58.57 820.87 54.15 819.29 54.15 819.29 60.42 821.42 60.42 824.19 56 824.27 56 824.27 60.42 825.85 60.42 825.85 54.15 823.72 54.15 820.95 58.57" fill="#191919"/><path d="M816.71,73l-2.79,6.27h1.63l.52-1.21h3.32l.53,1.21h1.63L818.75,73Zm-.06,3.67,1-2.31h.11l1,2.31Z" transform="translate(-9.04 -18.88)" fill="#191919"/><path d="M794.17,72.85c-2.3,0-3.76,1.25-3.76,3.33s1.46,3.32,3.76,3.32,3.76-1.3,3.76-3.32S796.56,72.85,794.17,72.85Zm0,5.21c-1.46,0-2.16-.75-2.16-1.88s.73-1.88,2.16-1.88,2.15.75,2.15,1.88S795.62,78.06,794.17,78.06Z" transform="translate(-9.04 -18.88)" fill="#191919"/></svg>